<svg width="140" height="58" viewBox="0 0 140 58" fill="none" xmlns="http://www.w3.org/2000/svg">
<g id="Logo">
<path id="Vector" d="M8.20034 31.8859C7.12255 31.8859 6.12916 31.7171 5.22017 31.3795C4.32417 31.0289 3.53855 30.5355 2.8633 29.8991C2.20103 29.2628 1.68161 28.5162 1.30503 27.6591C0.94144 26.8021 0.759644 25.8607 0.759644 24.8348C0.759644 23.8089 0.94144 22.8675 1.30503 22.0104C1.68161 21.1534 2.20752 20.4068 2.88277 19.7704C3.55802 19.1341 4.35013 18.6471 5.25912 18.3096C6.16811 17.959 7.16799 17.7836 8.25877 17.7836C9.46643 17.7836 10.5507 17.9849 11.5116 18.3875C12.4856 18.7901 13.3036 19.3744 13.9659 20.1405L11.9402 22.0104C11.4467 21.491 10.9078 21.108 10.3235 20.8612C9.73912 20.6015 9.10283 20.4716 8.4146 20.4716C7.75234 20.4716 7.14851 20.5755 6.60312 20.7833C6.05773 20.9911 5.58376 21.2897 5.18121 21.6793C4.79164 22.0689 4.48648 22.5299 4.26573 23.0623C4.05796 23.5946 3.95408 24.1855 3.95408 24.8348C3.95408 25.4711 4.05796 26.0555 4.26573 26.5878C4.48648 27.1202 4.79164 27.5877 5.18121 27.9903C5.58376 28.3798 6.05124 28.6784 6.58364 28.8863C7.12903 29.0941 7.72637 29.1979 8.37564 29.1979C8.99895 29.1979 9.60277 29.1005 10.1871 28.9057C10.7845 28.6979 11.3623 28.3539 11.9207 27.8734L13.7127 30.1523C12.9725 30.7108 12.109 31.1393 11.1221 31.4379C10.1482 31.7365 9.17425 31.8859 8.20034 31.8859ZM10.8299 29.7433V24.6205H13.7127V30.1523L10.8299 29.7433ZM22.8575 31.6522V29.607L22.6627 29.159V25.497C22.6627 24.8478 22.4613 24.3414 22.0589 23.9777C21.6693 23.6141 21.0655 23.4323 20.2474 23.4323C19.689 23.4323 19.1371 23.5233 18.5917 23.705C18.0593 23.8739 17.6048 24.1076 17.2283 24.4063L16.1375 22.2831C16.7088 21.8805 17.397 21.5689 18.2022 21.3482C19.0072 21.1275 19.8253 21.017 20.6564 21.017C22.2537 21.017 23.4937 21.3936 24.3768 22.1468C25.2598 22.9 25.7013 24.0751 25.7013 25.6723V31.6522H22.8575ZM19.6631 31.808C18.845 31.808 18.1437 31.6716 17.5594 31.399C16.9751 31.1132 16.5271 30.7302 16.2154 30.2497C15.9037 29.7692 15.7479 29.2304 15.7479 28.633C15.7479 28.0097 15.8972 27.4643 16.1959 26.9969C16.5076 26.5294 16.9945 26.1658 17.6568 25.9061C18.3191 25.6334 19.1825 25.497 20.2474 25.497H23.0328V27.2696H20.5785C19.8643 27.2696 19.3709 27.3864 19.0982 27.6202C18.8384 27.8539 18.7086 28.1461 18.7086 28.4967C18.7086 28.8863 18.8579 29.1979 19.1566 29.4316C19.4683 29.6524 19.8902 29.7628 20.4227 29.7628C20.9291 29.7628 21.3836 29.6459 21.7862 29.4122C22.1887 29.1654 22.4808 28.8083 22.6627 28.3409L23.1302 29.7433C22.9093 30.4186 22.5069 30.9315 21.9225 31.2821C21.3382 31.6327 20.585 31.808 19.6631 31.808ZM41.8719 21.017C42.7029 21.017 43.4366 21.1859 44.073 21.5235C44.7222 21.8482 45.2286 22.3546 45.5923 23.0428C45.9688 23.7181 46.1571 24.588 46.1571 25.6529V31.6522H43.1185V26.1203C43.1185 25.2763 42.9432 24.653 42.5926 24.2504C42.242 23.8478 41.7485 23.6466 41.1123 23.6466C40.6707 23.6466 40.2747 23.7504 39.9241 23.9583C39.5735 24.153 39.3008 24.4517 39.106 24.8543C38.9112 25.2568 38.8138 25.7697 38.8138 26.393V31.6522H35.7752V26.1203C35.7752 25.2763 35.5999 24.653 35.2493 24.2504C34.9116 23.8478 34.4247 23.6466 33.7884 23.6466C33.3469 23.6466 32.9509 23.7504 32.6003 23.9583C32.2497 24.153 31.977 24.4517 31.7822 24.8543C31.5874 25.2568 31.49 25.7697 31.49 26.393V31.6522H28.4514V21.1729H31.3537V24.0362L30.8083 23.1986C31.1718 22.4844 31.6848 21.9455 32.3471 21.5819C33.0222 21.2054 33.7884 21.017 34.6455 21.017C35.6064 21.017 36.4439 21.2638 37.1582 21.7572C37.8853 22.2377 38.3658 22.9779 38.5996 23.9777L37.5283 23.6856C37.8789 22.8675 38.4372 22.2182 39.2034 21.7377C39.9825 21.2572 40.872 21.017 41.8719 21.017ZM54.1575 31.808C52.9628 31.808 51.911 31.5743 51.002 31.1068C50.106 30.6393 49.4112 30.003 48.9178 29.1979C48.4244 28.3798 48.1776 27.4513 48.1776 26.4125C48.1776 25.3607 48.4178 24.4322 48.8983 23.6271C49.3918 22.809 50.0606 22.1727 50.9046 21.7183C51.7486 21.2508 52.7031 21.017 53.7679 21.017C54.7938 21.017 55.7157 21.2378 56.5338 21.6793C57.3649 22.1078 58.0206 22.7311 58.5011 23.5492C58.9816 24.3543 59.2218 25.3217 59.2218 26.4515C59.2218 26.5683 59.2154 26.7047 59.2023 26.8605C59.1893 27.0033 59.1764 27.1397 59.1634 27.2696H50.6514V25.497H57.5662L56.3975 26.023C56.3975 25.4776 56.2871 25.0036 56.0663 24.601C55.8456 24.1984 55.5404 23.8868 55.1509 23.6661C54.7613 23.4323 54.3068 23.3155 53.7874 23.3155C53.2679 23.3155 52.807 23.4323 52.4044 23.6661C52.0149 23.8868 51.7097 24.205 51.4889 24.6205C51.2682 25.0231 51.1578 25.5035 51.1578 26.0619V26.5294C51.1578 27.1007 51.2811 27.6071 51.5279 28.0487C51.7876 28.4772 52.1448 28.8083 52.5992 29.0421C53.0667 29.2628 53.6121 29.3732 54.2354 29.3732C54.7938 29.3732 55.2808 29.2888 55.6963 29.12C56.1248 28.9511 56.5143 28.6979 56.8649 28.3603L58.4816 30.1134C58.0011 30.6588 57.3973 31.0808 56.6702 31.3795C55.943 31.6652 55.1055 31.808 54.1575 31.808Z" fill="white"/>
<path id="Vector_2" d="M21.5333 46.4946C20.4814 46.4946 19.5011 46.3258 18.592 45.9882C17.696 45.6376 16.9169 45.1442 16.2547 44.5078C15.5924 43.8715 15.0729 43.1249 14.6964 42.2678C14.3328 41.4108 14.151 40.4694 14.151 39.4435C14.151 38.4176 14.3328 37.4762 14.6964 36.6191C15.0729 35.7621 15.5924 35.0155 16.2547 34.3791C16.9299 33.7428 17.7155 33.2558 18.6115 32.9183C19.5075 32.5677 20.4879 32.3923 21.5527 32.3923C22.7345 32.3923 23.7992 32.6002 24.7472 33.0157C25.7081 33.4182 26.5132 34.0155 27.1625 34.8077L25.1367 36.6776C24.6693 36.1452 24.1498 35.7491 23.5785 35.4894C23.0072 35.2167 22.3839 35.0803 21.7086 35.0803C21.0722 35.0803 20.4879 35.1842 19.9555 35.392C19.4232 35.5998 18.9621 35.8984 18.5726 36.288C18.183 36.6776 17.8778 37.1386 17.6571 37.671C17.4493 38.2033 17.3454 38.7942 17.3454 39.4435C17.3454 40.0927 17.4493 40.6836 17.6571 41.216C17.8778 41.7484 18.183 42.2094 18.5726 42.599C18.9621 42.9885 19.4232 43.2871 19.9555 43.495C20.4879 43.7028 21.0722 43.8066 21.7086 43.8066C22.3839 43.8066 23.0072 43.6767 23.5785 43.417C24.1498 43.1444 24.6693 42.7353 25.1367 42.1899L27.1625 44.0598C26.5132 44.852 25.7081 45.4558 24.7472 45.8713C23.7992 46.2868 22.7279 46.4946 21.5333 46.4946ZM33.9184 46.4167C32.7238 46.4167 31.6719 46.183 30.7629 45.7155C29.8669 45.248 29.1721 44.6117 28.6787 43.8066C28.1853 42.9885 27.9386 42.06 27.9386 41.0212C27.9386 39.9694 28.1788 39.0409 28.6593 38.2358C29.1527 37.4177 29.8215 36.7814 30.6655 36.327C31.5095 35.8595 32.464 35.6257 33.5288 35.6257C34.5547 35.6257 35.4767 35.8465 36.2947 36.288C37.1259 36.7165 37.7815 37.3398 38.262 38.1579C38.7425 38.963 38.9827 39.9304 38.9827 41.0602C38.9827 41.177 38.9763 41.3134 38.9633 41.4692C38.9502 41.612 38.9373 41.7484 38.9243 41.8783H30.4123V40.1057H37.3271L36.1584 40.6317C36.1584 40.0863 36.048 39.6123 35.8273 39.2097C35.6065 38.8071 35.3013 38.4955 34.9118 38.2748C34.5222 38.041 34.0678 37.9242 33.5483 37.9242C33.0288 37.9242 32.5679 38.041 32.1653 38.2748C31.7758 38.4955 31.4706 38.8137 31.2499 39.2292C31.0292 39.6318 30.9187 40.1122 30.9187 40.6706V41.1381C30.9187 41.7094 31.0421 42.2158 31.2888 42.6574C31.5485 43.0859 31.9057 43.417 32.3601 43.6508C32.8276 43.8715 33.373 43.9819 33.9963 43.9819C34.5547 43.9819 35.0417 43.8975 35.4572 43.7287C35.8857 43.5598 36.2753 43.3066 36.6259 42.969L38.2426 44.7221C37.7621 45.2675 37.1582 45.6896 36.4311 45.9882C35.7039 46.2739 34.8664 46.4167 33.9184 46.4167ZM47.3752 35.6257C48.2062 35.6257 48.9464 35.7946 49.5957 36.1322C50.258 36.4569 50.7773 36.9633 51.154 37.6515C51.5305 38.3268 51.7188 39.1967 51.7188 40.2616V46.2609H48.6802V40.729C48.6802 39.885 48.4919 39.2617 48.1154 38.8591C47.7517 38.4565 47.2323 38.2553 46.5571 38.2553C46.0766 38.2553 45.6416 38.3591 45.2521 38.567C44.8754 38.7617 44.5768 39.0669 44.3561 39.4824C44.1483 39.8979 44.0444 40.4304 44.0444 41.0797V46.2609H41.0058V35.7816H43.9081V38.6838L43.3627 37.8073C43.7392 37.1061 44.2781 36.5672 44.9794 36.1906C45.6806 35.8141 46.4792 35.6257 47.3752 35.6257ZM58.7584 46.4167C57.5247 46.4167 56.5638 46.105 55.8756 45.4817C55.1873 44.8454 54.8433 43.904 54.8433 42.6574V33.4637H57.8819V42.6184C57.8819 43.06 57.9988 43.404 58.2325 43.6508C58.4662 43.8845 58.7843 44.0014 59.1869 44.0014C59.6673 44.0014 60.0764 43.8715 60.4141 43.6118L61.2321 45.7544C60.9205 45.9751 60.5438 46.144 60.1024 46.2609C59.6739 46.3647 59.2259 46.4167 58.7584 46.4167ZM53.2266 38.3527V36.0153H60.492V38.3527H53.2266ZM67.8152 46.4167C66.6204 46.4167 65.5686 46.183 64.6597 45.7155C63.7637 45.248 63.0689 44.6117 62.5755 43.8066C62.082 42.9885 61.8354 42.06 61.8354 41.0212C61.8354 39.9694 62.0756 39.0409 62.5561 38.2358C63.0495 37.4177 63.7182 36.7814 64.5623 36.327C65.4063 35.8595 66.3608 35.6257 67.4256 35.6257C68.4514 35.6257 69.3734 35.8465 70.1915 36.288C71.0225 36.7165 71.6783 37.3398 72.1588 38.1579C72.6392 38.963 72.8795 39.9304 72.8795 41.0602C72.8795 41.177 72.873 41.3134 72.8601 41.4692C72.847 41.612 72.834 41.7484 72.8211 41.8783H64.3091V40.1057H71.2238L70.0552 40.6317C70.0552 40.0863 69.9448 39.6123 69.7241 39.2097C69.5032 38.8071 69.1981 38.4955 68.8086 38.2748C68.419 38.041 67.9644 37.9242 67.4451 37.9242C66.9256 37.9242 66.4646 38.041 66.0621 38.2748C65.6726 38.4955 65.3674 38.8137 65.1467 39.2292C64.9258 39.6318 64.8155 40.1122 64.8155 40.6706V41.1381C64.8155 41.7094 64.9389 42.2158 65.1856 42.6574C65.4453 43.0859 65.8024 43.417 66.2569 43.6508C66.7244 43.8715 67.2698 43.9819 67.8931 43.9819C68.4514 43.9819 68.9384 43.8975 69.354 43.7287C69.7825 43.5598 70.1721 43.3066 70.5227 42.969L72.1394 44.7221C71.6589 45.2675 71.055 45.6896 70.3279 45.9882C69.6006 46.2739 68.7631 46.4167 67.8152 46.4167ZM74.9025 46.2609V35.7816H77.8047V38.7423L77.3957 37.8852C77.7073 37.145 78.2073 36.5866 78.8955 36.2101C79.5837 35.8205 80.4213 35.6257 81.4082 35.6257V38.4306C81.2783 38.4176 81.1615 38.4111 81.0576 38.4111C80.9538 38.3981 80.8433 38.3917 80.7265 38.3917C79.8954 38.3917 79.2202 38.6318 78.7007 39.1123C78.1943 39.5798 77.9411 40.3135 77.9411 41.3134V46.2609H74.9025Z" fill="white"/>
<path id="Vector_3" d="M91.3043 14.8082L115.014 1.21738M91.3043 14.8082L103.039 21.5943M91.3043 14.8082V42.1696M115.014 1.21738L138.723 14.8082M115.014 1.21738V14.8082M103.039 21.5943L115.014 28.5188M103.039 21.5943V35.5238M103.039 21.5943L115.014 14.8082M91.3043 42.1696L103.039 35.5238M91.3043 42.1696L115.014 56M138.723 14.8082L126.868 21.6636M138.723 14.8082L138.783 42.1696M115.014 14.8082L126.868 21.6636M126.868 21.6636L115.014 28.5188M126.868 21.6636V35.5238M138.783 42.1696L126.868 35.5238M138.783 42.1696L115.014 56M115.014 28.5188V42.1696M115.014 42.1696L103.039 35.5238M115.014 42.1696L126.868 35.5238M115.014 42.1696V56" stroke="white"/>
</g>
</svg>
